<svg width="132" height="495" viewBox="0 0 132 495" fill="none" xmlns="http://www.w3.org/2000/svg">
<path opacity="0.351328" d="M145.187 0.805433C158.629 29.1891 161.718 55.271 158.848 80.0764C155.787 36.0113 119.614 41.1796 119.614 41.1796C127.813 83.8165 155.848 83.6749 158.428 83.5848C156.75 95.5604 153.799 107.251 149.614 118.661C146.392 74.9474 110.407 80.0571 110.407 80.0571C118.127 120.2 142.919 122.368 148.084 122.422C143.013 135.475 136.782 148.253 129.699 160.818C126.539 123.539 95.6752 127.855 95.6752 127.855C101.963 160.552 121.195 164.353 127.464 164.756C121.715 174.725 115.56 184.539 109.325 194.366C104.531 154.326 70.6312 159.039 70.6312 159.039C77.0284 192.301 95.8773 199.586 105.095 201.142C98.0082 212.254 91.4052 223.428 84.7319 234.578C76.9202 190.723 39.7024 202.713 39.7024 202.713C49.0782 237.83 70.1176 242.103 80.3175 242.002C72.0295 256.359 64.4877 270.852 58.9572 285.68C45.4484 240.215 9.95563 258.855 9.95563 258.855C25.4712 295.788 48.2845 293.655 56.6583 291.532C52.4005 304.182 49.7998 317.19 48.9857 330.487C34.7563 289.29 0.973871 306.815 0.973871 306.815C17.2625 345.624 41.5635 341.447 48.6686 339.322C48.6074 353.857 50.1175 367.179 52.9227 379.447C39.5077 353.691 14.6894 366.948 14.6894 366.948C30.0177 403.407 53.8652 395.555 57.0154 394.358C67.1234 424.868 84.5773 447.051 101.415 462.99C83.9288 454.571 75.1514 473.325 75.1514 473.325C99.4706 491.668 110.859 476.93 113.02 473.621C130.516 487.665 144.784 494.036 144.784 494.036L136.054 481.201C134.933 480.499 134 479.738 132.895 479.035C149.863 469.341 139.026 449.764 139.026 449.764C125.946 457.393 124.789 467.301 125.623 474.115C112.092 464.49 101.269 454.148 92.4881 443.753C127.357 450.947 125.972 416.886 125.972 416.886C93.9943 415.788 91.4321 439.26 91.2182 442.456C81.5711 430.812 74.8764 419.362 69.7836 408.646C104.163 422.471 110.605 388.52 110.605 388.52C80.8974 380.437 70.5012 396.656 67.3385 403.802C61.1925 389.715 58.6333 378.918 57.3291 371.199C97.942 386.621 105.743 346.326 105.743 346.326C76.0821 338.26 62.1567 350.484 55.9448 359.913C56.2054 336.881 56.0799 322.585 57.9471 309.84C101.689 329.11 109.749 286.144 109.749 286.144C80.2597 278.121 66.2974 290.165 60.0338 299.57C64.6313 281.773 77.9767 257.644 102.409 215.981C139.497 248.638 155.332 212.89 155.332 212.89C125.223 193.819 109.92 205.962 104.551 212.315C111.497 200.492 116.31 192.246 125.548 176.466C134.837 160.606 142.115 146.012 147.732 132.527C184.82 165.184 200.607 129.366 200.607 129.366C164.955 106.777 150.287 127.832 148.233 131.142C186.415 38.007 145.187 0.805433 145.187 0.805433ZM172.323 82.7659C160.759 89.8895 159.364 102.451 159.364 102.451C204.247 120.802 205.918 79.6959 205.918 79.6959C189.866 76.212 179.259 78.4943 172.323 82.7659ZM138.535 164.133C131.132 167.401 127.863 173.302 127.863 173.302C160.419 202.271 174.267 170.895 174.267 170.895C157.509 160.275 145.938 160.864 138.535 164.133ZM90.7153 244.648C81.6938 250.433 78.1638 258.548 78.1638 258.548C121.377 287.617 136.093 245.027 136.093 245.027C114.201 235.462 99.7242 238.87 90.7153 244.648ZM39.0121 426.677C59.6475 459.081 81.2405 443.461 81.2405 443.461C64.7687 404.643 39.0121 426.677 39.0121 426.677Z" fill="url(#paint0_radial_215_1878)"/>
<defs>
<radialGradient id="paint0_radial_215_1878" cx="0" cy="0" r="1" gradientUnits="userSpaceOnUse" gradientTransform="translate(-64.5231 188.535) rotate(23.2602) scale(459.974 439.046)">
<stop stop-color="#FF9CAA"/>
<stop offset="0.396043" stop-color="#6633CC"/>
<stop offset="1"/>
</radialGradient>
</defs>
</svg>
