<svg width="90" height="233" viewBox="0 0 90 233" fill="none" xmlns="http://www.w3.org/2000/svg">
<path opacity="0.2" fill-rule="evenodd" clip-rule="evenodd" d="M-41.617 228.901C-40.8856 226.094 -33.5884 223.883 -17.3384 209.806C-17.0571 204.202 -15.7587 184.227 -11.9332 169.536C-8.69412 157.097 -3.38911 147.325 3.30865 149.068C10.8266 151.024 9.76207 164.547 6.85174 175.44C5.16217 181.891 2.52978 188.056 -0.960869 193.737C2.86531 189.969 19.657 173.02 22.9009 168.436C20.6611 164.215 12.2253 150.323 8.61853 141.339C4.44876 130.954 0.0850593 115.577 2.0284 108.113C3.0843 104.058 6.2154 102.031 12.0956 103.561C25.4469 107.035 29.4013 146.094 29.3064 147.739C29.3039 147.783 28.3616 158.719 28.4829 158.706C34.3039 148.752 38.1119 141.289 41.8775 130.68C38.5028 126.114 14.3165 91.516 17.5738 79.6302C17.8604 78.6087 18.4523 77.6981 19.2694 77.0216C20.4227 75.9406 22.0793 75.5894 23.5719 76.108C32.3596 78.3956 44.138 102.409 47.7864 111.888L52.7443 92.8483C47.2348 85.5786 42.3022 77.8892 37.9933 69.8488C33.5266 61.2083 31.3462 45.819 33.4867 38.0287C34.4118 34.6715 36.0354 32.6852 38.7809 33.307C39.8448 33.5948 40.845 34.0812 41.7299 34.7384C51.9417 41.8382 54.5097 65.7533 55.3033 75.2168C56.4087 69.9688 56.7824 64.5932 56.4147 59.2419C56.2666 57.5396 57.0424 37.7675 61.0762 21.8282C64.1733 9.58981 69.8972 -1.27438 75.8379 0.257142C82.5891 1.99755 83.3113 14.4424 79.8605 27.7334C76.0717 42.3263 67.7082 58.7442 61.0926 68.5917C59.064 77.6192 58.6295 82.1103 56.3428 90.7353C56.3428 90.7353 74.0986 53.6788 86.4904 56.9038C99.2774 60.2316 63.7332 103.636 51.385 109.775C49.7406 116.137 47.768 122.409 45.476 128.567C53.825 119.175 71.4326 97.7111 81.2933 100.277C85.2539 101.308 85.8936 106.023 85.0201 109.379C80.9577 124.979 38.8624 146.16 38.8624 146.16C36.3542 152.018 33.511 157.726 30.3459 163.258C30.3459 163.258 59.7869 132.877 70.5342 145.989C81.163 158.957 36.2821 177.662 20.6703 177.003C19.1805 178.799 -2.29432 200.613 -9.93331 208.683C-9.73814 208.573 -1.78443 204.704 -1.78443 204.704C-1.78443 204.704 41.4317 181.68 46.4522 198.96C50.859 214.129 0.891908 226.748 -21.2647 220.982C-32.1947 230.514 -37.3545 232.043 -37.3545 232.043C-38.357 232.36 -39.4209 232.431 -40.4572 232.252C-41.6775 231.963 -42.2176 231.209 -41.617 228.901Z" fill="url(#paint0_linear_219_1883)"/>
<defs>
<linearGradient id="paint0_linear_219_1883" x1="22.6296" y1="278.75" x2="72.2989" y2="48.4273" gradientUnits="userSpaceOnUse">
<stop/>
<stop offset="0.60345" stop-color="#6633CC"/>
<stop offset="1" stop-color="#FF9CAA"/>
</linearGradient>
</defs>
</svg>
