<svg width="177" height="506" viewBox="0 0 177 506" fill="none" xmlns="http://www.w3.org/2000/svg">
<path opacity="0.2" fill-rule="evenodd" clip-rule="evenodd" d="M188.452 499.841C188.375 494.055 175.297 486.29 150.543 451.271C152.673 440.284 159.691 400.977 159.293 370.698C158.956 345.06 153.345 323.602 139.542 323.781C124.047 323.982 119.655 350.681 120.093 373.168C120.287 386.468 122.443 399.665 126.492 412.334C120.88 403.209 96.4475 362.368 92.3523 351.942C98.7045 344.837 121.673 321.957 132.946 306.278C145.978 288.154 161.769 260.455 161.567 245.072C161.457 236.714 156.36 231.294 144.242 231.45C116.725 231.807 90.4252 305.569 89.8238 308.8C89.8076 308.887 86.4137 330.516 86.1848 330.434C79.6614 308.377 75.8481 292.105 73.618 269.761C82.3329 262.529 145.688 207.063 145.052 182.488C144.985 180.373 144.273 178.327 143.013 176.627C141.296 173.983 138.255 172.512 135.116 172.804C117.005 173.041 82.7322 213.928 71.1422 230.546L70.6267 191.304C84.7668 179.853 97.9899 167.315 110.173 153.798C122.947 139.196 134.515 110.431 134.087 94.321C133.897 87.3773 131.701 82.7555 126.087 82.6495C123.889 82.6991 121.72 83.1638 119.692 84.0144C96.5258 92.8915 80.1385 137.984 74.0851 155.934C74.4488 145.242 76.2905 134.653 79.5565 124.464C80.6559 121.237 88.5895 82.5732 88.3841 49.7771C88.2264 24.5961 82.3256 0.822849 70.0888 0.953847C56.1826 1.1026 48.8445 24.8608 49.1849 52.2495C49.5583 82.3208 57.9211 118.11 66.0344 140.34C65.655 158.792 64.3531 167.698 64.6655 185.494C64.6655 185.494 47.9619 105.25 22.4225 105.582C-3.93112 105.924 44.1952 206.953 65.181 224.736C65.3296 237.842 66.1565 250.932 67.657 263.951C55.969 241.777 32.1108 191.803 11.7882 192.067C3.62557 192.173 0.13637 200.999 0.226506 207.916C0.649329 240.068 72.0696 301.182 72.0696 301.182C74.1317 313.725 76.9142 326.137 80.4044 338.36C80.4044 338.36 37.8828 265.47 10.8099 285.736C-15.9641 305.777 62.033 363.425 92.5838 369.6C94.6121 373.789 125.793 426.287 136.737 445.563C136.411 445.256 122.853 433.968 122.853 433.968C122.853 433.968 50.1414 368.75 32.1711 399.821C16.3969 427.096 107.149 475.384 152.813 474.791C169.433 498.468 178.697 503.892 178.697 503.892C180.487 504.984 182.514 505.63 184.606 505.778C187.108 505.8 188.514 504.597 188.452 499.841Z" fill="url(#paint0_linear_219_1885)"/>
<defs>
<linearGradient id="paint0_linear_219_1885" x1="40.2303" y1="565.726" x2="53.9538" y2="95.9377" gradientUnits="userSpaceOnUse">
<stop/>
<stop offset="0.60345" stop-color="#6633CC"/>
<stop offset="1" stop-color="#FF9CAA"/>
</linearGradient>
</defs>
</svg>
