<svg width="230" height="342" viewBox="0 0 230 342" fill="none" xmlns="http://www.w3.org/2000/svg">
<g opacity="0.1">
<path d="M259.751 302.904C259.751 302.904 99.2411 99.3282 342.853 29.9624C342.853 29.9624 381.951 130.535 259.751 302.904Z" fill="url(#paint0_linear_287_239)"/>
<path d="M212.24 329.711C212.24 329.711 95.5394 231.972 195.311 0C195.311 0 333.418 151.301 212.24 329.711Z" fill="url(#paint1_linear_287_239)"/>
<path d="M311.791 328.015C311.791 328.015 177.347 399.389 0 219.655C0 219.655 192.115 148.596 311.791 328.015Z" fill="url(#paint2_linear_287_239)"/>
<path d="M243.819 320.565C243.819 320.565 93.8831 294.417 64.0901 43.6558C64.0901 43.6558 259.375 105.441 243.819 320.565Z" fill="url(#paint3_linear_287_239)"/>
</g>
<defs>
<linearGradient id="paint0_linear_287_239" x1="230.217" y1="321.743" x2="475.327" y2="7.44104" gradientUnits="userSpaceOnUse">
<stop/>
<stop offset="0.60345" stop-color="#6633CC"/>
<stop offset="1" stop-color="#FF9CAA"/>
</linearGradient>
<linearGradient id="paint1_linear_287_239" x1="305.605" y1="213.961" x2="125.065" y2="33.8664" gradientUnits="userSpaceOnUse">
<stop/>
<stop offset="0.60345" stop-color="#6633CC"/>
<stop offset="1" stop-color="#FF9CAA"/>
</linearGradient>
<linearGradient id="paint2_linear_287_239" x1="228.948" y1="240.323" x2="-107.674" y2="273.838" gradientUnits="userSpaceOnUse">
<stop/>
<stop offset="0.60345" stop-color="#4D2899"/>
<stop offset="1" stop-color="#FF9CAA"/>
</linearGradient>
<linearGradient id="paint3_linear_287_239" x1="127.986" y1="303.244" x2="129.18" y2="38.4791" gradientUnits="userSpaceOnUse">
<stop/>
<stop offset="0.60345" stop-color="#6633CC"/>
<stop offset="1" stop-color="#FF9CAA"/>
</linearGradient>
</defs>
</svg>
