<svg width="92" height="495" viewBox="0 0 92 495" fill="none" xmlns="http://www.w3.org/2000/svg">
<path opacity="0.351328" d="M-53.0704 0.805555C-66.5119 29.1892 -69.6011 55.2711 -66.7309 80.0765C-63.6709 36.0114 -27.4973 41.1798 -27.4973 41.1798C-35.6968 83.8166 -63.7317 83.675 -66.3116 83.5849C-64.633 95.5606 -61.6822 107.252 -57.4972 118.661C-54.2757 74.9475 -18.2906 80.0572 -18.2906 80.0572C-26.0102 120.2 -50.8029 122.368 -55.9669 122.422C-50.8962 135.475 -44.6659 148.253 -37.5827 160.818C-34.4221 123.539 -3.55866 127.855 -3.55866 127.855C-9.84634 160.552 -29.0781 164.353 -35.3477 164.756C-29.5988 174.725 -23.4436 184.54 -17.2083 194.366C-12.414 154.326 21.4853 159.04 21.4853 159.04C15.0882 192.301 -3.76069 199.586 -12.9789 201.142C-5.89164 212.254 0.711365 223.429 7.38463 234.578C15.1964 190.723 52.4142 202.713 52.4142 202.713C43.0383 237.83 21.999 242.103 11.7991 242.002C20.0871 256.359 27.6289 270.852 33.1593 285.68C46.6682 240.215 82.1609 258.855 82.1609 258.855C66.6454 295.788 43.8321 293.656 35.4583 291.532C39.7161 304.182 42.3168 317.19 43.1309 330.488C57.3602 289.29 91.1427 306.816 91.1427 306.816C74.854 345.624 50.5531 341.447 43.448 339.323C43.5092 353.858 41.999 367.179 39.1939 379.447C52.6089 353.691 77.4271 366.948 77.4271 366.948C62.0989 403.407 38.2513 395.555 35.1012 394.358C24.9932 424.868 7.53931 447.051 -9.29856 462.99C8.18775 454.571 16.9652 473.326 16.9652 473.326C-7.35405 491.668 -18.7425 476.93 -20.9035 473.621C-38.3995 487.665 -52.6678 494.036 -52.6678 494.036L-43.9376 481.201C-42.8162 480.499 -41.8831 479.738 -40.7785 479.035C-57.7459 469.341 -46.9094 449.764 -46.9094 449.764C-33.8296 457.393 -32.672 467.301 -33.5069 474.115C-19.9754 464.49 -9.15243 454.148 -0.371566 443.753C-35.2409 450.947 -33.8553 416.886 -33.8553 416.886C-1.87773 415.789 0.684502 439.26 0.898353 442.456C10.5455 430.812 17.2402 419.362 22.333 408.646C-12.0462 422.471 -18.4883 388.52 -18.4883 388.52C11.2192 380.437 21.6153 396.656 24.7781 403.802C30.924 389.715 33.4833 378.918 34.7875 371.2C-5.82542 386.621 -13.6261 346.326 -13.6261 346.326C16.0345 338.26 29.9599 350.484 36.1718 359.913C35.9111 336.881 36.0367 322.585 34.1695 309.84C-9.57218 329.11 -17.6329 286.144 -17.6329 286.144C11.8569 278.121 25.8192 290.165 32.0828 299.57C27.4853 281.773 14.1398 257.644 -10.2926 215.981C-47.3805 248.638 -63.2157 212.89 -63.2157 212.89C-33.1066 193.82 -17.8036 205.963 -12.4344 212.315C-19.3807 200.492 -24.1931 192.246 -33.4318 176.466C-42.7203 160.606 -49.9987 146.012 -55.6155 132.527C-92.7034 165.184 -108.49 129.366 -108.49 129.366C-72.8385 106.777 -58.1708 127.832 -56.1165 131.142C-94.2986 38.0071 -53.0704 0.805555 -53.0704 0.805555ZM-80.2061 82.766C-68.6428 89.8896 -67.2475 102.451 -67.2475 102.451C-112.131 120.802 -113.802 79.696 -113.802 79.696C-97.7492 76.2121 -87.1424 78.4945 -80.2061 82.766ZM-46.4187 164.133C-39.0153 167.402 -35.7462 173.302 -35.7462 173.302C-68.3023 202.272 -82.1502 170.895 -82.1502 170.895C-65.3921 160.275 -53.8213 160.864 -46.4187 164.133ZM1.40123 244.648C10.4228 250.434 13.9528 258.548 13.9528 258.548C-29.2602 287.617 -43.9768 245.027 -43.9768 245.027C-22.0839 235.462 -7.60763 238.87 1.40123 244.648ZM53.1045 426.677C32.4691 459.081 10.8761 443.461 10.8761 443.461C27.3479 404.643 53.1045 426.677 53.1045 426.677Z" fill="url(#paint0_radial_287_245)"/>
<defs>
<radialGradient id="paint0_radial_287_245" cx="0" cy="0" r="1" gradientUnits="userSpaceOnUse" gradientTransform="translate(156.64 188.535) rotate(156.74) scale(459.974 439.046)">
<stop stop-color="#FF9CAA"/>
<stop offset="0.396043" stop-color="#6633CC"/>
<stop offset="1"/>
</radialGradient>
</defs>
</svg>
