<svg xmlns="http://www.w3.org/2000/svg" width="165" height="24" fill="none"><g clip-path="url(#Logo_svg__a)"><path fill="#50DDA4" d="m.374 19.709 10.304-18.2A2.864 2.864 0 0 1 14.585.43a2.878 2.878 0 0 1 1.079 3.916L5.36 22.545a2.865 2.865 0 0 1-3.908 1.08A2.878 2.878 0 0 1 .374 19.71"></path><path fill="#6358F4" d="m15.905 10.293-5.326 9.409a2.876 2.876 0 0 0 1.078 3.916c1.377.783 3.127.299 3.908-1.081l5.327-9.409a2.876 2.876 0 0 0-1.08-3.916 2.863 2.863 0 0 0-3.907 1.08M20.362 19.635l.032-.056a2.865 2.865 0 0 1 3.908-1.08 2.878 2.878 0 0 1 1.078 3.916l-.032.056a2.864 2.864 0 0 1-3.907 1.08 2.877 2.877 0 0 1-1.079-3.916"></path><path fill="#fff" d="M66.466 22.389h-3.825v-1.38a7.819 7.819 0 0 1-5.08 1.84c-4.498 0-8.11-3.68-8.11-8.281 0-4.601 3.611-8.281 8.11-8.281a7.82 7.82 0 0 1 5.08 1.84v-1.38h3.825v15.64zm-8.385-3.282c2.418 0 4.346-1.963 4.346-4.54 0-2.576-1.928-4.539-4.346-4.539s-4.376 1.963-4.376 4.54c0 2.576 1.928 4.539 4.376 4.539M85.01 22.389h-3.825v-1.38a7.819 7.819 0 0 1-5.08 1.84c-4.498 0-8.11-3.68-8.11-8.281 0-4.601 3.612-8.281 8.11-8.281a7.82 7.82 0 0 1 5.08 1.84v-1.38h3.825v15.64zm-8.385-3.282c2.418 0 4.346-1.963 4.346-4.54 0-2.576-1.928-4.539-4.346-4.539s-4.376 1.963-4.376 4.54c0 2.576 1.928 4.539 4.376 4.539M102.561 22.389h-4.04v-9.201c0-1.84-1.254-3.22-2.998-3.22a3.092 3.092 0 0 0-3.121 3.097v9.324h-4.04V6.747h3.764v1.104c.98-1.042 2.479-1.625 4.223-1.625 2.05 0 3.733.797 4.835 2.177 1.102-1.35 3.029-2.177 5.172-2.177 3.733 0 6.304 2.545 6.304 6.256v9.906h-4.039v-9.11c0-1.962-1.224-3.311-2.999-3.311-1.776 0-3.061 1.35-3.061 3.128v9.293zM123.174 22.849c-4.835 0-8.66-3.68-8.66-8.281 0-4.601 3.825-8.281 8.629-8.281 3.183 0 5.999 1.564 7.406 4.14l-3.611 1.993c-.673-1.472-2.112-2.392-3.795-2.392-2.449 0-4.376 1.994-4.376 4.54 0 2.545 1.927 4.539 4.376 4.539 1.866 0 3.488-1.166 4.07-2.914l3.733 1.779c-1.285 2.975-4.314 4.876-7.772 4.876zM132.413 0h4.039v7.575c.949-.858 2.357-1.35 3.948-1.35 3.641 0 6.212 2.577 6.212 6.288v9.876h-4.04v-9.201c0-1.84-1.254-3.22-2.999-3.22a3.092 3.092 0 0 0-3.121 3.097v9.324h-4.039zM156.903 22.849c-5.08 0-8.814-3.497-8.814-8.22 0-4.723 3.672-8.342 8.385-8.342 4.713 0 7.926 3.528 7.926 8.158 0 .46-.03 1.043-.092 1.626h-11.781c.397 1.901 1.958 3.128 4.284 3.128 1.591 0 2.724-.583 3.856-1.932l3.213 2.392c-1.591 2.055-4.071 3.19-6.978 3.19zm3.182-9.998c-.245-1.779-1.652-2.976-3.641-2.976s-3.305 1.258-3.795 2.976zM33.426 6.69h3.815v1.244c.962-1.057 2.482-1.647 4.28-1.647 3.692 0 6.267 2.61 6.267 6.372v9.69h-4.094v-9.006c0-1.865-1.241-3.264-3.009-3.264a3.135 3.135 0 0 0-3.164 3.14v9.13h-4.094z"></path></g><defs><clipPath id="Logo_svg__a"><path fill="#fff" d="M0 0h164.4v24H0z"></path></clipPath></defs></svg>
