<?xml version="1.0" encoding="UTF-8"?>
<svg id="Layer_1" data-name="Layer 1" xmlns="http://www.w3.org/2000/svg" xmlns:xlink="http://www.w3.org/1999/xlink" viewBox="0 0 230.37 37.7">
  <defs>
    <style>
      .cls-1 {
        clip-path: url(#clippath);
      }

      .cls-2 {
        fill: none;
      }

      .cls-3 {
        fill: #fcf7ff;
      }
    </style>
    <clipPath id="clippath">
      <rect class="cls-2" width="230.37" height="37.7"/>
    </clipPath>
  </defs>
  <g class="cls-1">
    <g>
      <path class="cls-3" d="M12.74,2.28c2.4,0,4.5,.38,6.33,1.15,1.85,.74,3.45,1.83,4.8,3.28l-3.24,4.38c-1.12-1.19-2.33-2.07-3.63-2.65-1.28-.61-2.73-.91-4.37-.91-.96,0-1.75,.11-2.34,.32-.6,.21-1.03,.5-1.29,.87-.26,.37-.39,.79-.39,1.26,0,.55,.25,1.03,.74,1.42,.52,.37,1.35,.68,2.5,.95l4.33,.99c2.58,.61,4.46,1.49,5.66,2.65,1.2,1.16,1.8,2.7,1.8,4.62s-.47,3.41-1.41,4.7c-.94,1.26-2.23,2.23-3.86,2.88-1.64,.63-3.52,.95-5.62,.95-1.72,0-3.36-.18-4.92-.55-1.56-.4-2.97-.95-4.22-1.66-1.25-.71-2.3-1.53-3.16-2.45l3.24-4.54c.65,.76,1.45,1.45,2.38,2.05,.96,.58,2,1.04,3.12,1.38,1.15,.34,2.3,.51,3.48,.51,.91,0,1.67-.09,2.26-.28,.62-.18,1.08-.46,1.37-.83,.29-.37,.43-.8,.43-1.3,0-.55-.2-1.01-.59-1.38-.39-.4-1.13-.72-2.23-.99l-4.76-1.07c-1.46-.34-2.76-.79-3.9-1.34-1.12-.58-2.01-1.34-2.66-2.29-.65-.97-.98-2.19-.98-3.63,0-1.63,.44-3.08,1.33-4.35,.89-1.29,2.16-2.3,3.83-3.04,1.67-.74,3.66-1.11,5.97-1.11Z"/>
      <path class="cls-3" d="M37.68,29.14c-2.16,0-4.04-.41-5.62-1.22-1.56-.82-2.77-1.99-3.63-3.52-.86-1.53-1.29-3.37-1.29-5.53s.43-4,1.29-5.53c.86-1.53,2.06-2.7,3.59-3.52,1.56-.82,3.35-1.22,5.35-1.22s3.8,.41,5.23,1.22c1.46,.79,2.56,1.9,3.32,3.32,.76,1.4,1.13,3,1.13,4.82,0,.47-.01,.95-.04,1.42-.03,.47-.07,.87-.12,1.19h-15.46v-3.59h12.53l-3.16,1.22c0-1.58-.29-2.79-.86-3.63-.55-.84-1.41-1.26-2.58-1.26-.83,0-1.55,.2-2.15,.59-.57,.4-1.01,1.01-1.33,1.86-.29,.84-.43,1.92-.43,3.24s.17,2.34,.51,3.16c.34,.79,.82,1.37,1.44,1.74,.62,.34,1.38,.51,2.27,.51,.99,0,1.77-.2,2.34-.59,.6-.4,1.04-.95,1.33-1.66l5.31,1.78c-.36,1.13-1,2.09-1.91,2.88-.89,.76-1.95,1.34-3.2,1.74-1.22,.4-2.51,.59-3.87,.59Z"/>
      <path class="cls-3" d="M60.79,8.6c1.98,0,3.62,.29,4.92,.87,1.33,.55,2.36,1.3,3.08,2.25,.76,.92,1.22,1.92,1.41,3l-6.13,2.05c-.18-1.13-.52-1.98-1.02-2.53-.47-.58-1.16-.87-2.07-.87-.83,0-1.54,.2-2.11,.59-.55,.37-.96,.97-1.25,1.82-.29,.82-.43,1.87-.43,3.16s.16,2.34,.47,3.16c.31,.79,.76,1.37,1.33,1.74,.57,.34,1.25,.51,2.03,.51,.65,0,1.18-.12,1.6-.36,.44-.26,.81-.63,1.09-1.11,.29-.47,.47-1.05,.55-1.74l5.97,1.94c-.18,1.16-.68,2.2-1.48,3.12-.78,.9-1.82,1.61-3.12,2.13-1.3,.53-2.83,.79-4.57,.79-2.14,0-4-.4-5.58-1.19-1.59-.82-2.81-1.99-3.67-3.52-.86-1.55-1.29-3.41-1.29-5.57s.43-4,1.29-5.53c.86-1.55,2.06-2.73,3.59-3.52,1.56-.82,3.36-1.22,5.39-1.22Z"/>
      <path class="cls-3" d="M81.08,29.14c-1.33,0-2.5-.22-3.52-.67-.99-.47-1.77-1.22-2.34-2.25-.57-1.03-.86-2.37-.86-4.03V8.99h6.64v11.61c0,1.26,.25,2.15,.74,2.65,.49,.5,1.2,.75,2.11,.75,.47,0,.91-.08,1.33-.24,.42-.18,.78-.45,1.09-.79,.31-.37,.55-.83,.7-1.38,.18-.58,.27-1.25,.27-2.01V8.99h6.64V28.75h-5.93l-.2-3.71c-.62,1.4-1.5,2.44-2.62,3.12-1.12,.66-2.47,.99-4.06,.99Z"/>
      <path class="cls-3" d="M99.43,28.75V8.99h5.86l.27,4.27c.5-1.47,1.22-2.62,2.19-3.44,.99-.82,2.24-1.22,3.75-1.22,.49,0,.91,.04,1.25,.12,.36,.08,.65,.18,.86,.32l-.66,5.53c-.26-.11-.6-.18-1.01-.24-.39-.08-.87-.12-1.45-.12-.78,0-1.51,.17-2.19,.51-.68,.34-1.22,.86-1.64,1.54-.39,.66-.58,1.5-.58,2.53v9.95h-6.64Z"/>
      <path class="cls-3" d="M120.31,6.7c-1.35,0-2.34-.25-2.97-.75-.6-.53-.9-1.34-.9-2.45s.3-1.95,.9-2.45c.62-.53,1.61-.79,2.97-.79s2.3,.26,2.93,.79c.62,.5,.94,1.32,.94,2.45s-.31,1.92-.94,2.45c-.62,.5-1.6,.75-2.93,.75Zm3.32,2.29V28.75h-6.64V9h6.64Z"/>
      <path class="cls-3" d="M137.29,2.71V21.71c0,.95,.22,1.63,.66,2.05,.47,.4,1.11,.59,1.91,.59,.62,0,1.16-.07,1.6-.2,.47-.16,.89-.38,1.25-.67l.7,4.15c-.65,.47-1.47,.84-2.46,1.11-.99,.26-2,.39-3.05,.39-1.48,0-2.77-.21-3.87-.63-1.07-.42-1.9-1.09-2.5-2.01-.57-.92-.87-2.15-.9-3.67V4.57l6.64-1.86Zm5.82,6.28v4.78h-15.82v-4.78h15.82Z"/>
      <path class="cls-3" d="M166.6,8.99l-7.11,19.75c-.73,2.08-1.52,3.74-2.38,4.98-.86,1.24-1.87,2.13-3.05,2.69-1.17,.55-2.58,.83-4.22,.83-1.09,0-2.1-.12-3.01-.36-.91-.24-1.7-.57-2.38-.99l1.33-4.54c.47,.34,.96,.58,1.48,.71,.52,.16,1.18,.24,1.99,.24,.76,0,1.37-.13,1.84-.4,.49-.26,.89-.76,1.17-1.5l.51-1.22-2.26-5.37-5.86-14.81h7.3l3.01,11.26,.94,4.19,1.09-4.35,3.01-11.1h6.6Z"/>
      <path class="cls-3" d="M182.04,2.67c2.11,0,3.9,.34,5.39,1.03,1.48,.68,2.62,1.67,3.4,2.96s1.17,2.86,1.17,4.7-.39,3.41-1.17,4.7c-.78,1.29-1.91,2.28-3.4,2.96-1.48,.68-3.28,1.03-5.39,1.03h-5.12v8.69h-6.72V2.67h11.83Zm-1.05,12.29c1.4,0,2.46-.29,3.16-.87,.73-.61,1.09-1.51,1.09-2.73s-.37-2.11-1.09-2.69c-.7-.61-1.76-.91-3.16-.91h-4.06v7.19h4.06Z"/>
      <path class="cls-3" d="M207.5,16.22c0-.92-.26-1.65-.78-2.17-.49-.55-1.17-.83-2.03-.83s-1.6,.22-2.23,.67c-.6,.42-1.02,1.19-1.25,2.29l-5.62-1.34c.36-1.9,1.33-3.41,2.89-4.54,1.56-1.13,3.76-1.7,6.6-1.7,1.9,0,3.51,.29,4.84,.87,1.35,.55,2.38,1.4,3.08,2.53,.73,1.11,1.09,2.48,1.09,4.11v7.23c0,1.03,.46,1.54,1.37,1.54,.47,0,.85-.05,1.13-.16l-.39,3.83c-.78,.37-1.73,.55-2.85,.55-1.01,0-1.91-.16-2.69-.47-.78-.34-1.39-.84-1.84-1.5-.44-.68-.66-1.54-.66-2.57v-.24l.74-.28c0,1.13-.34,2.08-1.02,2.84-.65,.76-1.51,1.33-2.58,1.7-1.04,.37-2.14,.55-3.28,.55-1.33,0-2.49-.21-3.47-.63-.99-.42-1.76-1.03-2.3-1.82-.52-.82-.78-1.82-.78-3,0-1.42,.42-2.59,1.25-3.52,.86-.95,2.2-1.61,4.02-1.98l7.38-1.54-.04,3.56-3.75,.79c-.78,.16-1.37,.4-1.76,.71-.36,.29-.55,.74-.55,1.34s.21,1.01,.62,1.3c.42,.29,.91,.43,1.48,.43,.44,0,.86-.07,1.25-.2,.42-.13,.78-.33,1.09-.59,.31-.29,.56-.65,.74-1.07,.18-.42,.27-.92,.27-1.5v-5.21Z"/>
      <path class="cls-3" d="M226.56,.62V22.03c0,.87,.14,1.49,.43,1.86,.29,.37,.77,.55,1.45,.55,.39,0,.72-.03,.98-.08,.26-.05,.57-.13,.94-.24l-.43,4.03c-.47,.29-1.08,.53-1.84,.71-.76,.18-1.5,.28-2.23,.28-2.08,0-3.59-.49-4.53-1.46-.94-.97-1.41-2.57-1.41-4.78V.62h6.64Z"/>
    </g>
  </g>
</svg>