<svg width="132" height="495" viewBox="0 0 132 495" fill="none" xmlns="http://www.w3.org/2000/svg">
<path opacity="0.351328" d="M-13.0704 0.805311C-26.5119 29.189 -29.6011 55.2709 -26.7309 80.0763C-23.6709 36.0111 12.5027 41.1795 12.5027 41.1795C4.30324 83.8164 -23.7317 83.6748 -26.3116 83.5847C-24.633 95.5603 -21.6822 107.251 -17.4972 118.661C-14.2757 74.9473 21.7094 80.0569 21.7094 80.0569C13.9898 120.2 -10.8029 122.368 -15.9669 122.422C-10.8962 135.475 -4.66588 148.253 2.41729 160.818C5.57786 123.538 36.4413 127.855 36.4413 127.855C30.1537 160.552 10.9219 164.353 4.65231 164.756C10.4012 174.725 16.5564 184.539 22.7917 194.365C27.586 154.326 61.4853 159.039 61.4853 159.039C55.0882 192.3 36.2393 199.586 27.0211 201.142C34.1084 212.254 40.7114 223.428 47.3846 234.578C55.1964 190.723 92.4142 202.713 92.4142 202.713C83.0383 237.83 61.999 242.103 51.7991 242.002C60.0871 256.359 67.6289 270.852 73.1593 285.68C86.6682 240.215 122.161 258.855 122.161 258.855C106.645 295.787 83.8321 293.655 75.4583 291.532C79.7161 304.182 82.3168 317.19 83.1309 330.487C97.3602 289.29 131.143 306.815 131.143 306.815C114.854 345.624 90.5531 341.447 83.448 339.322C83.5092 353.857 81.999 367.179 79.1939 379.447C92.6089 353.691 117.427 366.948 117.427 366.948C102.099 403.407 78.2513 395.555 75.1012 394.357C64.9932 424.868 47.5393 447.051 30.7014 462.99C48.1878 454.571 56.9652 473.325 56.9652 473.325C32.646 491.668 21.2575 476.93 19.0965 473.621C1.60048 487.665 -12.6678 494.036 -12.6678 494.036L-3.93761 481.201C-2.81616 480.499 -1.88314 479.738 -0.778532 479.034C-17.7459 469.341 -6.90945 449.763 -6.90945 449.763C6.17044 457.393 7.32798 467.301 6.49313 474.115C20.0246 464.49 30.8476 454.148 39.6284 443.753C4.75915 450.947 6.1447 416.886 6.1447 416.886C38.1223 415.788 40.6845 439.26 40.8984 442.455C50.5455 430.812 57.2402 419.361 62.333 408.645C27.9538 422.471 21.5117 388.52 21.5117 388.52C51.2192 380.437 61.6153 396.656 64.7781 403.802C70.924 389.715 73.4833 378.918 74.7875 371.199C34.1746 386.621 26.3739 346.326 26.3739 346.326C56.0345 338.26 69.9599 350.484 76.1718 359.913C75.9111 336.881 76.0367 322.585 74.1695 309.84C30.4278 329.11 22.3671 286.144 22.3671 286.144C51.8569 278.121 65.8192 290.165 72.0828 299.57C67.4853 281.773 54.1398 257.644 29.7074 215.981C-7.38053 248.638 -23.2157 212.89 -23.2157 212.89C6.89337 193.819 22.1964 205.962 27.5656 212.315C20.6193 200.492 15.8069 192.246 6.56825 176.466C-2.72032 160.606 -9.99868 146.012 -15.6155 132.527C-52.7034 165.184 -68.4899 129.366 -68.4899 129.366C-32.8385 106.777 -18.1708 127.832 -16.1165 131.142C-54.2986 38.0069 -13.0704 0.805311 -13.0704 0.805311ZM-40.2061 82.7658C-28.6428 89.8893 -27.2475 102.451 -27.2475 102.451C-72.1308 120.802 -73.8016 79.6958 -73.8016 79.6958C-57.7492 76.2118 -47.1424 78.4942 -40.2061 82.7658ZM-6.41871 164.133C0.984729 167.401 4.25384 173.302 4.25384 173.302C-28.3023 202.271 -42.1502 170.895 -42.1502 170.895C-25.3921 160.275 -13.8213 160.864 -6.41871 164.133ZM41.4012 244.648C50.4228 250.433 53.9528 258.548 53.9528 258.548C10.7398 287.617 -3.9768 245.027 -3.9768 245.027C17.9161 235.462 32.3924 238.87 41.4012 244.648ZM93.1045 426.676C72.4691 459.081 50.8761 443.461 50.8761 443.461C67.3479 404.643 93.1045 426.676 93.1045 426.676Z" fill="url(#paint0_radial_215_1879)"/>
<defs>
<radialGradient id="paint0_radial_215_1879" cx="0" cy="0" r="1" gradientUnits="userSpaceOnUse" gradientTransform="translate(196.64 188.535) rotate(156.74) scale(459.974 439.046)">
<stop stop-color="#FF9CAA"/>
<stop offset="0.396043" stop-color="#6633CC"/>
<stop offset="1"/>
</radialGradient>
</defs>
</svg>
