<svg width="132" height="495" viewBox="0 0 132 495" fill="none" xmlns="http://www.w3.org/2000/svg">
<path opacity="0.351328" d="M-13.0703 0.805311C-26.5118 29.189 -29.601 55.2709 -26.7308 80.0763C-23.6708 36.0111 12.5028 41.1795 12.5028 41.1795C4.30336 83.8164 -23.7315 83.6748 -26.3115 83.5847C-24.6329 95.5603 -21.6821 107.251 -17.4971 118.661C-14.2755 74.9473 21.7095 80.0569 21.7095 80.0569C13.99 120.2 -10.8028 122.368 -15.9668 122.422C-10.896 135.475 -4.66576 148.253 2.41741 160.818C5.57798 123.538 36.4415 127.855 36.4415 127.855C30.1538 160.552 10.922 164.353 4.65243 164.756C10.4013 174.725 16.5565 184.539 22.7918 194.365C27.5861 154.326 61.4855 159.039 61.4855 159.039C55.0883 192.3 36.2394 199.586 27.0213 201.142C34.1085 212.254 40.7115 223.428 47.3848 234.578C55.1965 190.723 92.4143 202.713 92.4143 202.713C83.0385 237.83 61.9991 242.103 51.7992 242.002C60.0872 256.359 67.629 270.852 73.1595 285.68C86.6683 240.215 122.161 258.855 122.161 258.855C106.645 295.787 83.8322 293.655 75.4584 291.532C79.7162 304.182 82.3169 317.19 83.131 330.487C97.3604 289.29 131.143 306.815 131.143 306.815C114.854 345.624 90.5532 341.447 83.4481 339.322C83.5093 353.857 81.9992 367.179 79.194 379.447C92.609 353.691 117.427 366.948 117.427 366.948C102.099 403.407 78.2515 395.555 75.1013 394.357C64.9933 424.868 47.5394 447.051 30.7016 462.99C48.1879 454.571 56.9653 473.325 56.9653 473.325C32.6461 491.668 21.2577 476.93 19.0966 473.621C1.6006 487.665 -12.6677 494.036 -12.6677 494.036L-3.93748 481.201C-2.81604 480.499 -1.88302 479.738 -0.77841 479.034C-17.7458 469.341 -6.90933 449.763 -6.90933 449.763C6.17056 457.393 7.32811 467.301 6.49326 474.115C20.0247 464.49 30.8477 454.148 39.6286 443.753C4.75927 450.947 6.14482 416.886 6.14482 416.886C38.1224 415.788 40.6846 439.26 40.8985 442.455C50.5456 430.812 57.2403 419.361 62.3331 408.645C27.9539 422.471 21.5118 388.52 21.5118 388.52C51.2193 380.437 61.6155 396.656 64.7782 403.802C70.9242 389.715 73.4834 378.918 74.7876 371.199C34.1747 386.621 26.374 346.326 26.374 346.326C56.0346 338.26 69.96 350.484 76.1719 359.913C75.9113 336.881 76.0368 322.585 74.1696 309.84C30.4279 329.11 22.3673 286.144 22.3673 286.144C51.857 278.121 65.8193 290.165 72.0829 299.57C67.4854 281.773 54.14 257.644 29.7076 215.981C-7.3804 248.638 -23.2156 212.89 -23.2156 212.89C6.8935 193.819 22.1965 205.962 27.5657 212.315C20.6194 200.492 15.807 192.246 6.56837 176.466C-2.7202 160.606 -9.99856 146.012 -15.6154 132.527C-52.7033 165.184 -68.4898 129.366 -68.4898 129.366C-32.8384 106.777 -18.1707 127.832 -16.1164 131.142C-54.2984 38.0069 -13.0703 0.805311 -13.0703 0.805311ZM-40.206 82.7658C-28.6426 89.8893 -27.2473 102.451 -27.2473 102.451C-72.1307 120.802 -73.8015 79.6958 -73.8015 79.6958C-57.7491 76.2118 -47.1423 78.4942 -40.206 82.7658ZM-6.41859 164.133C0.984851 167.401 4.25396 173.302 4.25396 173.302C-28.3022 202.271 -42.1501 170.895 -42.1501 170.895C-25.392 160.275 -13.8212 160.864 -6.41859 164.133ZM41.4014 244.648C50.4229 250.433 53.9529 258.548 53.9529 258.548C10.7399 287.617 -3.97668 245.027 -3.97668 245.027C17.9162 235.462 32.3925 238.87 41.4014 244.648ZM93.1046 426.676C72.4692 459.081 50.8762 443.461 50.8762 443.461C67.348 404.643 93.1046 426.676 93.1046 426.676Z" fill="url(#paint0_radial_1311_1025)"/>
<defs>
<radialGradient id="paint0_radial_1311_1025" cx="0" cy="0" r="1" gradientUnits="userSpaceOnUse" gradientTransform="translate(196.64 188.535) rotate(156.74) scale(459.974 439.046)">
<stop stop-color="#FF9CAA"/>
<stop offset="0.396043" stop-color="#6633CC"/>
<stop offset="1"/>
</radialGradient>
</defs>
</svg>
